<svg width="65" height="65" viewBox="0 0 65 65" fill="none" xmlns="http://www.w3.org/2000/svg">
<path d="M47.7388 0.960449H16.855C7.74444 0.960449 0.358902 8.34599 0.358902 17.4565V48.3404C0.358902 57.4509 7.74445 64.8364 16.855 64.8364H47.7388C56.8494 64.8364 64.2349 57.4509 64.2349 48.3404V17.4565C64.2349 8.34599 56.8494 0.960449 47.7388 0.960449Z" fill="#1C3441"/>
<path fill-rule="evenodd" clip-rule="evenodd" d="M34.4772 64.8364H3.88456C1.93684 64.8364 0.358902 63.2575 0.358902 61.3108V4.4861C0.358902 2.53839 1.93684 0.960449 3.88456 0.960449H60.7097C62.6565 0.960449 64.2349 2.53839 64.2349 4.4861V61.3108C64.2349 63.258 62.6565 64.8364 60.7097 64.8364H44.4323V40.1H52.7352L53.9783 30.4597H44.4323V24.3051C44.4323 21.514 45.2073 19.6122 49.2096 19.6122L54.3142 19.6102V10.988C53.4314 10.8707 50.4013 10.6082 46.8756 10.6082C39.5154 10.6082 34.4767 15.101 34.4767 23.351V30.4602H26.1528V40.1005H34.4772V64.8364Z" fill="#FEFEFE"/>
</svg>
