<svg width="65" height="64" viewBox="0 0 65 64" fill="none" xmlns="http://www.w3.org/2000/svg">
<path d="M19.6136 1.84941H45.4316C54.9441 1.84941 62.6861 9.59137 62.6862 19.1041V44.9221C62.6862 54.4348 54.9443 62.1767 45.4316 62.1767H19.6136C10.1009 62.1767 2.35891 54.4348 2.35891 44.9221V19.1041C2.35891 9.59138 10.1009 1.84941 19.6136 1.84941ZM45.4316 59.2995C53.3719 59.2995 59.809 52.8624 59.809 44.9221V19.1041C59.809 11.1636 53.3719 4.72666 45.4316 4.72666H19.6136C11.6732 4.72666 5.23617 11.1636 5.23617 19.1041V44.9221C5.23617 52.8624 11.6732 59.2995 19.6136 59.2995H45.4316Z" fill="#2A3B47" stroke="#FBFBFE" stroke-width="3.54867"/>
<path d="M17.7757 32.0126C17.7757 23.8831 24.3924 17.2664 32.5219 17.2664C40.6515 17.2664 47.2682 23.883 47.2682 32.0126C47.2682 40.1421 40.6515 46.7588 32.5219 46.7588C24.3924 46.7588 17.7757 40.142 17.7757 32.0126ZM20.6529 32.0127C20.6529 38.5678 25.9668 43.8817 32.5219 43.8817C39.0769 43.8817 44.3909 38.5677 44.3909 32.0127C44.3909 25.4576 39.0771 20.1437 32.5219 20.1437C25.9669 20.1437 20.6529 25.4575 20.6529 32.0127Z" fill="#2A3B47" stroke="#FBFBFE" stroke-width="3.54867"/>
<path d="M51.2591 15.616C51.2591 16.8224 50.2811 17.8004 49.0747 17.8004C47.8684 17.8004 46.8904 16.8224 46.8904 15.616C46.8904 14.4096 47.8684 13.4317 49.0747 13.4317C50.2811 13.4317 51.2591 14.4096 51.2591 15.616Z" fill="#2A3B47" stroke="#FBFBFE" stroke-width="3.54867"/>
</svg>
